<!DOCTYPE svg PUBLIC "-//W3C//DTD SVG 1.1//EN" "http://www.w3.org/Graphics/SVG/1.1/DTD/svg11.dtd">
<!-- Uploaded to: SVG Repo, www.svgrepo.com, Transformed by: SVG Repo Mixer Tools -->
<svg fill="#000000" width="256px" height="256px" viewBox="-3.6 -3.6 31.20 31.20" xmlns="http://www.w3.org/2000/svg" stroke="#000000" stroke-width="0.00024000000000000003">
<g id="SVGRepo_bgCarrier" stroke-width="0" transform="translate(0,0), scale(1)">
<path transform="translate(-3.6, -3.6), scale(0.9750000000000001)" d="M16,31.103886384103035C20.345076596373637,31.380245040219865,23.568769985299053,27.603306143956715,26.3583978062997,24.260546601981883C29.25996152791685,20.78365633580845,32.85596002195614,16.7884126084905,31.570405744470946,12.446156495217602C30.320210596960436,8.223333999786924,24.961699823522896,7.527426088597555,20.900274326121377,5.824475512734876C17.259907835160238,4.298074445892755,13.651151335103895,2.0893865430571976,9.916028796837567,3.366503620503263C5.67848299841326,4.815409794312337,1.7106746200203156,8.161878840748258,1.0919920882602394,12.59734447798867C0.5065529891318475,16.794480930982886,4.513358177366473,19.740045682877046,7.171832084911067,23.040228984868875C9.802310263520285,26.30565887555303,11.81531267312636,30.83772892052941,16,31.103886384103035" fill="#00efff" strokewidth="0"/>
</g>
<g id="SVGRepo_tracerCarrier" stroke-linecap="round" stroke-linejoin="round" stroke="#CCCCCC" stroke-width="0.144"/>
<g id="SVGRepo_iconCarrier">
<path d="M20 4H4a2 2 0 0 0-2 2v12a2 2 0 0 0 2 2h16a2 2 0 0 0 2-2V6a2 2 0 0 0-2-2zM6.414 15.707 5 14.293 7.293 12 5 9.707l1.414-1.414L10.121 12l-3.707 3.707zM19 16h-7v-2h7v2z"/>
</g>
</svg>